<svg width="32" height="32" viewBox="0 0 32 32" fill="none" xmlns="http://www.w3.org/2000/svg">
<g id="Group 18">
<path id="circle-icon" d="M16 30C12.287 30 8.72601 28.525 6.1005 25.8995C3.475 23.274 2 19.713 2 16C2 12.287 3.475 8.72601 6.1005 6.1005C8.72601 3.475 12.287 2 16 2C19.713 2 23.274 3.475 25.8995 6.1005C28.525 8.72601 30 12.287 30 16C30 19.713 28.525 23.274 25.8995 25.8995C23.274 28.525 19.713 30 16 30ZM16 32C20.2435 32 24.3131 30.3143 27.3137 27.3137C30.3143 24.3131 32 20.2435 32 16C32 11.7565 30.3143 7.68687 27.3137 4.68629C24.3131 1.68571 20.2435 0 16 0C11.7565 0 7.68687 1.68571 4.68629 4.68629C1.68571 7.68687 0 11.7565 0 16C0 20.2435 1.68571 24.3131 4.68629 27.3137C7.68687 30.3143 11.7565 32 16 32Z" fill="#487C99"/>
<path id="circle-icon" d="M16 26C13.3478 26 10.8043 24.9464 8.92893 23.0711C7.05357 21.1957 6 18.6522 6 16C6 13.3478 7.05357 10.8043 8.92893 8.92893C10.8043 7.05357 13.3478 6 16 6C18.6522 6 21.1957 7.05357 23.0711 8.92893C24.9464 10.8043 26 13.3478 26 16C26 18.6522 24.9464 21.1957 23.0711 23.0711C21.1957 24.9464 18.6522 26 16 26ZM16 28C17.5759 28 19.1363 27.6896 20.5922 27.0866C22.0481 26.4835 23.371 25.5996 24.4853 24.4853C25.5996 23.371 26.4835 22.0481 27.0866 20.5922C27.6896 19.1363 28 17.5759 28 16C28 14.4241 27.6896 12.8637 27.0866 11.4078C26.4835 9.95189 25.5996 8.62902 24.4853 7.51472C23.371 6.40042 22.0481 5.5165 20.5922 4.91345C19.1363 4.31039 17.5759 4 16 4C12.8174 4 9.76515 5.26428 7.51472 7.51472C5.26428 9.76515 4 12.8174 4 16C4 19.1826 5.26428 22.2348 7.51472 24.4853C9.76515 26.7357 12.8174 28 16 28Z" fill="#487C99"/>
<path id="circle-icon" d="M16 22C14.4087 22 12.8826 21.3679 11.7574 20.2426C10.6321 19.1174 10 17.5913 10 16C10 14.4087 10.6321 12.8826 11.7574 11.7574C12.8826 10.6321 14.4087 10 16 10C17.5913 10 19.1174 10.6321 20.2426 11.7574C21.3679 12.8826 22 14.4087 22 16C22 17.5913 21.3679 19.1174 20.2426 20.2426C19.1174 21.3679 17.5913 22 16 22ZM16 24C18.1217 24 20.1566 23.1571 21.6569 21.6569C23.1571 20.1566 24 18.1217 24 16C24 13.8783 23.1571 11.8434 21.6569 10.3431C20.1566 8.84285 18.1217 8 16 8C13.8783 8 11.8434 8.84285 10.3431 10.3431C8.84285 11.8434 8 13.8783 8 16C8 18.1217 8.84285 20.1566 10.3431 21.6569C11.8434 23.1571 13.8783 24 16 24Z" fill="#487C99"/>
<path id="circle-icon" d="M19 16C19 16.7956 18.6839 17.5587 18.1213 18.1213C17.5587 18.6839 16.7956 19 16 19C15.2044 19 14.4413 18.6839 13.8787 18.1213C13.3161 17.5587 13 16.7956 13 16C13 15.2044 13.3161 14.4413 13.8787 13.8787C14.4413 13.3161 15.2044 13 16 13C16.7956 13 17.5587 13.3161 18.1213 13.8787C18.6839 14.4413 19 15.2044 19 16Z" fill="#487C99"/>
</g>
</svg>
