<svg width="32" height="28" viewBox="0 0 32 28" fill="none" xmlns="http://www.w3.org/2000/svg">
<path id="column-icon" d="M22 2C22 1.46957 22.2107 0.960859 22.5858 0.585786C22.9609 0.210714 23.4696 0 24 0H28C28.5304 0 29.0391 0.210714 29.4142 0.585786C29.7893 0.960859 30 1.46957 30 2V26H31C31.2652 26 31.5196 26.1054 31.7071 26.2929C31.8946 26.4804 32 26.7348 32 27C32 27.2652 31.8946 27.5196 31.7071 27.7071C31.5196 27.8946 31.2652 28 31 28H1C0.734784 28 0.48043 27.8946 0.292893 27.7071C0.105357 27.5196 0 27.2652 0 27C0 26.7348 0.105357 26.4804 0.292893 26.2929C0.48043 26.1054 0.734784 26 1 26H2V20C2 19.4696 2.21071 18.9609 2.58579 18.5858C2.96086 18.2107 3.46957 18 4 18H8C8.53043 18 9.03914 18.2107 9.41421 18.5858C9.78929 18.9609 10 19.4696 10 20V26H12V12C12 11.4696 12.2107 10.9609 12.5858 10.5858C12.9609 10.2107 13.4696 10 14 10H18C18.5304 10 19.0391 10.2107 19.4142 10.5858C19.7893 10.9609 20 11.4696 20 12V26H22V2ZM24 26H28V2H24V26ZM18 26V12H14V26H18ZM8 26V20H4V26H8Z" fill="#487C99"/>
</svg>
