<svg width="25" height="31" viewBox="0 0 25 31" fill="none" xmlns="http://www.w3.org/2000/svg">
<path id="hand-icon" d="M13.7615 0.090878C11.8449 -0.38043 10.0645 1.04533 9.9362 2.89112C9.79185 4.96369 9.47508 6.86667 9.07811 7.9986C8.8275 8.70852 8.11777 9.99623 6.99303 11.2307C5.87631 12.4593 4.42277 13.5537 2.72063 14.0112C1.37335 14.3721 0 15.5198 0 17.196V25.086C0 26.7523 1.36733 27.973 2.90307 28.1327C5.0483 28.3575 6.03871 28.9511 7.04917 29.5585L7.14541 29.6176C7.69073 29.943 8.30423 30.3039 9.09014 30.5721C9.88608 30.8403 10.8163 31 12.0293 31H19.0464C20.925 31 22.2522 30.0594 22.9238 28.9018C23.2485 28.3555 23.4239 27.736 23.4331 27.1033C23.4331 26.8036 23.387 26.4881 23.2787 26.1883C23.6817 25.6697 24.0406 25.0485 24.2571 24.4115C24.4776 23.7608 24.6019 22.9089 24.2651 22.1457C24.4034 21.8894 24.5057 21.6153 24.5839 21.351C24.7383 20.8186 24.8104 20.2309 24.8104 19.661C24.8104 19.0931 24.7383 18.5074 24.5839 17.973C24.5138 17.7273 24.4211 17.4884 24.3072 17.2591C24.6583 16.7678 24.8841 16.2008 24.9658 15.6057C25.0474 15.0106 24.9825 14.4049 24.7764 13.8397C24.3633 12.6722 23.409 11.6705 22.3705 11.3313C20.6724 10.7752 18.7557 10.787 17.3262 10.9152C17.0294 10.9414 16.7333 10.9743 16.438 11.0138C17.1335 8.08415 17.0909 5.03175 16.3137 2.12204C16.1785 1.65584 15.9192 1.23362 15.5625 0.899062C15.2058 0.564502 14.7647 0.329741 14.2848 0.219058L13.7615 0.090878ZM19.0464 29.03H12.0293C11.0068 29.03 10.2991 28.8939 9.74374 28.7066C9.18036 28.5153 8.72926 28.2569 8.18795 27.9316L8.10775 27.8842C6.99504 27.2157 5.7059 26.4427 3.11559 26.1725C2.44796 26.1016 2.00488 25.6007 2.00488 25.0879V17.196C2.00488 16.6951 2.45799 16.1252 3.24791 15.9142C5.44326 15.3226 7.21157 13.9501 8.48868 12.546C9.76178 11.1459 10.6219 9.63733 10.9707 8.64541C11.4579 7.26501 11.7867 5.15892 11.9371 3.02521C11.9872 2.31135 12.6588 1.85385 13.2743 2.00372L13.7996 2.13387C14.1204 2.21275 14.3169 2.41587 14.377 2.63673C15.1958 5.7052 15.0948 8.94111 14.0863 11.9544C14.0292 12.122 14.019 12.3016 14.0567 12.4744C14.0944 12.6473 14.1786 12.8069 14.3005 12.9368C14.4225 13.0666 14.5777 13.1618 14.7498 13.2124C14.922 13.263 15.1049 13.2671 15.2792 13.2244L15.2852 13.2224L15.3133 13.2165L15.4296 13.1889C16.1152 13.0457 16.8087 12.9423 17.5066 12.8793C18.8359 12.761 20.4278 12.7728 21.7369 13.2027C22.0878 13.3171 22.6391 13.7943 22.8797 14.4845C23.0943 15.0919 23.0542 15.8057 22.3464 16.4999L21.6387 17.196L22.3464 17.8941C22.4326 17.9789 22.5569 18.1721 22.6552 18.5153C22.7514 18.8446 22.8056 19.2449 22.8056 19.661C22.8056 20.0791 22.7514 20.4774 22.6552 20.8087C22.5549 21.1518 22.4326 21.3451 22.3464 21.4299L21.6387 22.126L22.3464 22.8241C22.4407 22.9168 22.565 23.1731 22.3565 23.7864C22.1392 24.3811 21.7938 24.9227 21.344 25.3739L20.6363 26.07L21.344 26.7681C21.356 26.7779 21.4262 26.8667 21.4262 27.1033C21.4173 27.3926 21.3338 27.6749 21.1836 27.9237C20.8528 28.4916 20.1751 29.028 19.0464 29.028V29.03Z" fill="#487C99"/>
</svg>
